<svg xmlns="http://www.w3.org/2000/svg" xmlns:xlink="http://www.w3.org/1999/xlink" viewBox="0 0 192.16 192.16"><defs><style>.cls-1,.cls-2,.cls-3,.cls-4,.cls-5,.cls-6,.cls-7,.cls-8,.cls-9{fill:none;}.cls-2,.cls-3,.cls-4,.cls-5,.cls-6,.cls-7,.cls-8,.cls-9{stroke:#ffa841;}.cls-2{stroke-width:4px;}.cls-3{stroke-width:3.64px;}.cls-4{stroke-width:3.29px;}.cls-5{stroke-width:2.93px;}.cls-6{stroke-width:2.57px;}.cls-7{stroke-width:2.21px;}.cls-8{stroke-width:1.86px;}.cls-9{stroke-width:1.5px;}.cls-10{isolation:isolate;}.cls-11{opacity:0.5;mix-blend-mode:soft-light;}.cls-12{fill:url(#Undulating_Coarse_Lines);}</style><pattern id="Undulating_Coarse_Lines" data-name="Undulating Coarse Lines" width="60.75" height="72" patternUnits="userSpaceOnUse" viewBox="0 0 60.75 72"><rect class="cls-1" width="60.75" height="72"/><line class="cls-2" x1="60.75" x2="60.75" y2="72"/><line class="cls-2" y2="72"/><line class="cls-3" x1="4.34" x2="4.34" y2="72"/><line class="cls-4" x1="8.68" x2="8.68" y2="72"/><line class="cls-5" x1="13.02" x2="13.02" y2="72"/><line class="cls-6" x1="17.36" x2="17.36" y2="72"/><line class="cls-7" x1="21.69" x2="21.69" y2="72"/><line class="cls-8" x1="26.03" x2="26.03" y2="72"/><line class="cls-2" x1="60.75" x2="60.75" y2="72"/><line class="cls-3" x1="56.41" x2="56.41" y2="72"/><line class="cls-4" x1="52.07" x2="52.07" y2="72"/><line class="cls-5" x1="47.73" x2="47.73" y2="72"/><line class="cls-6" x1="43.39" x2="43.39" y2="72"/><line class="cls-7" x1="39.05" x2="39.05" y2="72"/><line class="cls-8" x1="34.71" x2="34.71" y2="72"/><line class="cls-9" x1="30.38" x2="30.38" y2="72"/><line class="cls-2" y2="72"/></pattern></defs><g class="cls-10"><g id="Layer_2" data-name="Layer 2"><g id="Layer_1-2" data-name="Layer 1"><g class="cls-11"><path class="cls-12" d="M141.91,192.16H50.25A50.25,50.25,0,0,1,0,141.91V50.25A50.25,50.25,0,0,1,50.25,0H192.16V141.91A50.25,50.25,0,0,1,141.91,192.16Z"/></g></g></g></g></svg>